<svg width="24" height="24" viewBox="0 0 24 24" fill="none" xmlns="http://www.w3.org/2000/svg">
<path d="M12 1L21 12L12 23L3 12L12 1Z" fill="#F2D957"/>
<path d="M12 1L17.539 7.77H16.4812L13.9906 8.17556L10.7569 10H6.87527L5.11902 9.411L12 1Z" fill="#FFDB78"/>
<path d="M8.14505 6L9.84305 7.971L12.2701 8.402L15.6331 6.143L16.1371 6.057L21.0001 12L19.0331 14.404L18.6051 13.5L15.5321 12H13.4791L11.4381 10.775L8.70505 10.153L4.51905 10.515L4.35205 10.349L7.89005 6.024L8.14505 6Z" fill="#F2F78F"/>
<path d="M6 9L8.705 10L11.438 10.708L13.479 12.104L17.882 11.113L20 12.765L19 14L17.882 14.471L14.771 14.917L12 15.68L9.396 17L7.343 16.302L5 14L3 12L6 9Z" fill="#FFD900"/>
<path d="M21 12L12.02 22.976L4 13.1L7.403 15.547L9.622 16.556L12.5 15.547L15.685 14.819H17.476L21 12Z" fill="#E2BB24"/>
<path opacity="0.01" d="M12 8V1L3 12H9L12 8Z" fill="#06070D"/>
<path opacity="0.121" d="M12 16V23L3 12H9L12 16Z" fill="#06070D"/>
<path opacity="0.33" d="M21 12L12 23V16L15 12H21Z" fill="#06070D"/>
<path opacity="0.2" d="M15 12H21L12 1V8L15 12Z" fill="#06070D"/>
<path d="M12 8L15 12L12 16L9 12L12 8Z" fill="url(#paint0_linear_16824_276751)"/>
<path opacity="0.5" fill-rule="evenodd" clip-rule="evenodd" d="M21 12L12 1L3 12L12 23L21 12ZM5.583 12L12 4.157L18.416 12L12 19.842L5.583 12Z" fill="#06070D"/>
<defs>
<linearGradient id="paint0_linear_16824_276751" x1="16.9974" y1="13.3057" x2="11.6112" y2="8.64849" gradientUnits="userSpaceOnUse">
<stop stop-color="white" stop-opacity="0.01"/>
<stop offset="1" stop-color="#FEFEFE"/>
</linearGradient>
</defs>
</svg>
